<mxfile host="app.diagrams.net" agent="Mozilla/5.0 (Macintosh; Intel Mac OS X 10_15_7) AppleWebKit/537.36 (KHTML, like Gecko) Chrome/133.0.0.0 Safari/537.36" version="26.0.16">
  <diagram name="第 1 页" id="MOIEc8QgFmzstSxDTv2h">
    <mxGraphModel dx="1592" dy="1121" grid="1" gridSize="10" guides="1" tooltips="1" connect="1" arrows="1" fold="1" page="1" pageScale="1" pageWidth="827" pageHeight="1169" math="0" shadow="0">
      <root>
        <mxCell id="0" />
        <mxCell id="1" parent="0" />
        <mxCell id="ELJ18ER6MCdmm3gd8A2N-20" value="" style="rounded=0;whiteSpace=wrap;html=1;sketch=1;hachureGap=4;jiggle=2;curveFitting=1;fontFamily=Architects Daughter;fontSource=https%3A%2F%2Ffonts.googleapis.com%2Fcss%3Ffamily%3DArchitects%2BDaughter;fillColor=none;strokeWidth=2;" vertex="1" parent="1">
          <mxGeometry x="500" y="310" width="160" height="380" as="geometry" />
        </mxCell>
        <mxCell id="ELJ18ER6MCdmm3gd8A2N-1" value="" style="shape=umlActor;verticalLabelPosition=bottom;verticalAlign=top;html=1;outlineConnect=0;sketch=1;hachureGap=4;jiggle=2;curveFitting=1;fontFamily=Architects Daughter;fontSource=https%3A%2F%2Ffonts.googleapis.com%2Fcss%3Ffamily%3DArchitects%2BDaughter;" vertex="1" parent="1">
          <mxGeometry x="160" y="560" width="40" height="60" as="geometry" />
        </mxCell>
        <mxCell id="ELJ18ER6MCdmm3gd8A2N-21" style="edgeStyle=orthogonalEdgeStyle;rounded=0;sketch=1;hachureGap=4;jiggle=2;curveFitting=1;orthogonalLoop=1;jettySize=auto;html=1;exitX=1;exitY=0.5;exitDx=0;exitDy=0;entryX=0;entryY=0.5;entryDx=0;entryDy=0;fontFamily=Architects Daughter;fontSource=https%3A%2F%2Ffonts.googleapis.com%2Fcss%3Ffamily%3DArchitects%2BDaughter;strokeWidth=2;" edge="1" parent="1" source="ELJ18ER6MCdmm3gd8A2N-2" target="ELJ18ER6MCdmm3gd8A2N-20">
          <mxGeometry relative="1" as="geometry" />
        </mxCell>
        <mxCell id="ELJ18ER6MCdmm3gd8A2N-2" value="&lt;b&gt;VS code&lt;/b&gt;&lt;div&gt;&lt;span style=&quot;background-color: transparent; color: light-dark(rgb(0, 0, 0), rgb(255, 255, 255));&quot;&gt;JetBrains&amp;nbsp;&lt;/span&gt;&lt;b&gt;Idea&lt;/b&gt;&lt;/div&gt;" style="rounded=0;whiteSpace=wrap;html=1;sketch=1;hachureGap=4;jiggle=2;curveFitting=1;fontFamily=Architects Daughter;fontSource=https%3A%2F%2Ffonts.googleapis.com%2Fcss%3Ffamily%3DArchitects%2BDaughter;fillColor=none;strokeWidth=2;" vertex="1" parent="1">
          <mxGeometry x="280" y="380" width="120" height="60" as="geometry" />
        </mxCell>
        <mxCell id="ELJ18ER6MCdmm3gd8A2N-22" style="edgeStyle=orthogonalEdgeStyle;rounded=0;sketch=1;hachureGap=4;jiggle=2;curveFitting=1;orthogonalLoop=1;jettySize=auto;html=1;exitX=1;exitY=0.5;exitDx=0;exitDy=0;entryX=0;entryY=0.5;entryDx=0;entryDy=0;fontFamily=Architects Daughter;fontSource=https%3A%2F%2Ffonts.googleapis.com%2Fcss%3Ffamily%3DArchitects%2BDaughter;strokeWidth=2;" edge="1" parent="1" source="ELJ18ER6MCdmm3gd8A2N-3" target="ELJ18ER6MCdmm3gd8A2N-20">
          <mxGeometry relative="1" as="geometry" />
        </mxCell>
        <mxCell id="ELJ18ER6MCdmm3gd8A2N-3" value="&lt;b&gt;字节Trae（免费）&lt;/b&gt;&lt;div&gt;&lt;b&gt;Cursor&lt;/b&gt;&lt;/div&gt;&lt;div&gt;&lt;b&gt;windsurf&lt;/b&gt;&lt;/div&gt;" style="rounded=0;whiteSpace=wrap;html=1;sketch=1;hachureGap=4;jiggle=2;curveFitting=1;fontFamily=Architects Daughter;fontSource=https%3A%2F%2Ffonts.googleapis.com%2Fcss%3Ffamily%3DArchitects%2BDaughter;fillColor=none;strokeWidth=2;" vertex="1" parent="1">
          <mxGeometry x="280" y="560" width="120" height="60" as="geometry" />
        </mxCell>
        <mxCell id="ELJ18ER6MCdmm3gd8A2N-4" value="" style="endArrow=classic;html=1;rounded=0;sketch=1;hachureGap=4;jiggle=2;curveFitting=1;fontFamily=Architects Daughter;fontSource=https%3A%2F%2Ffonts.googleapis.com%2Fcss%3Ffamily%3DArchitects%2BDaughter;strokeWidth=2;entryX=0;entryY=0.5;entryDx=0;entryDy=0;" edge="1" parent="1" target="ELJ18ER6MCdmm3gd8A2N-2">
          <mxGeometry width="50" height="50" relative="1" as="geometry">
            <mxPoint x="200" y="590" as="sourcePoint" />
            <mxPoint x="250" y="420" as="targetPoint" />
          </mxGeometry>
        </mxCell>
        <mxCell id="ELJ18ER6MCdmm3gd8A2N-5" value="&lt;b&gt;官网Chat&lt;/b&gt;" style="rounded=0;whiteSpace=wrap;html=1;sketch=1;hachureGap=4;jiggle=2;curveFitting=1;fontFamily=Architects Daughter;fontSource=https%3A%2F%2Ffonts.googleapis.com%2Fcss%3Ffamily%3DArchitects%2BDaughter;fillColor=none;strokeWidth=2;" vertex="1" parent="1">
          <mxGeometry x="280" y="740" width="120" height="60" as="geometry" />
        </mxCell>
        <mxCell id="ELJ18ER6MCdmm3gd8A2N-6" value="" style="endArrow=classic;html=1;rounded=0;sketch=1;hachureGap=4;jiggle=2;curveFitting=1;fontFamily=Architects Daughter;fontSource=https%3A%2F%2Ffonts.googleapis.com%2Fcss%3Ffamily%3DArchitects%2BDaughter;strokeWidth=2;entryX=0;entryY=0.5;entryDx=0;entryDy=0;" edge="1" parent="1" source="ELJ18ER6MCdmm3gd8A2N-1" target="ELJ18ER6MCdmm3gd8A2N-3">
          <mxGeometry width="50" height="50" relative="1" as="geometry">
            <mxPoint x="210" y="590" as="sourcePoint" />
            <mxPoint x="290" y="420" as="targetPoint" />
          </mxGeometry>
        </mxCell>
        <mxCell id="ELJ18ER6MCdmm3gd8A2N-8" value="&lt;b style=&quot;forced-color-adjust: none; color: rgb(0, 0, 0); font-family: &amp;quot;Architects Daughter&amp;quot;; font-style: normal; font-variant-ligatures: normal; font-variant-caps: normal; letter-spacing: normal; orphans: 2; text-indent: 0px; text-transform: none; widows: 2; word-spacing: 0px; -webkit-text-stroke-width: 0px; white-space: nowrap; text-decoration-thickness: initial; text-decoration-style: initial; text-decoration-color: initial;&quot;&gt;&lt;font style=&quot;forced-color-adjust: none; font-size: 14px;&quot;&gt;无内置AI&lt;/font&gt;&lt;/b&gt;" style="text;whiteSpace=wrap;html=1;fontFamily=Architects Daughter;fontSource=https%3A%2F%2Ffonts.googleapis.com%2Fcss%3Ffamily%3DArchitects%2BDaughter;align=center;" vertex="1" parent="1">
          <mxGeometry x="300" y="450" width="80" height="40" as="geometry" />
        </mxCell>
        <mxCell id="ELJ18ER6MCdmm3gd8A2N-11" value="&lt;b style=&quot;forced-color-adjust: none; color: rgb(0, 0, 0); font-family: &amp;quot;Architects Daughter&amp;quot;; font-style: normal; font-variant-ligatures: normal; font-variant-caps: normal; letter-spacing: normal; orphans: 2; text-indent: 0px; text-transform: none; widows: 2; word-spacing: 0px; -webkit-text-stroke-width: 0px; white-space: nowrap; text-decoration-thickness: initial; text-decoration-style: initial; text-decoration-color: initial;&quot;&gt;&lt;font style=&quot;forced-color-adjust: none; font-size: 14px;&quot;&gt;插件&lt;/font&gt;&lt;/b&gt;" style="text;whiteSpace=wrap;html=1;fontFamily=Architects Daughter;fontSource=https%3A%2F%2Ffonts.googleapis.com%2Fcss%3Ffamily%3DArchitects%2BDaughter;align=center;" vertex="1" parent="1">
          <mxGeometry x="430" y="500" width="80" height="40" as="geometry" />
        </mxCell>
        <mxCell id="ELJ18ER6MCdmm3gd8A2N-13" value="&lt;b&gt;Github Copilot&lt;/b&gt;" style="rounded=0;whiteSpace=wrap;html=1;sketch=1;hachureGap=4;jiggle=2;curveFitting=1;fontFamily=Architects Daughter;fontSource=https%3A%2F%2Ffonts.googleapis.com%2Fcss%3Ffamily%3DArchitects%2BDaughter;fillColor=none;strokeWidth=2;" vertex="1" parent="1">
          <mxGeometry x="520" y="330" width="120" height="30" as="geometry" />
        </mxCell>
        <mxCell id="ELJ18ER6MCdmm3gd8A2N-14" value="&lt;b&gt;阿里通义灵码&lt;/b&gt;" style="rounded=0;whiteSpace=wrap;html=1;sketch=1;hachureGap=4;jiggle=2;curveFitting=1;fontFamily=Architects Daughter;fontSource=https%3A%2F%2Ffonts.googleapis.com%2Fcss%3Ffamily%3DArchitects%2BDaughter;fillColor=none;strokeWidth=2;" vertex="1" parent="1">
          <mxGeometry x="520" y="393" width="120" height="30" as="geometry" />
        </mxCell>
        <mxCell id="ELJ18ER6MCdmm3gd8A2N-15" value="&lt;b&gt;JetBrains AI assiant&lt;/b&gt;" style="rounded=0;whiteSpace=wrap;html=1;sketch=1;hachureGap=4;jiggle=2;curveFitting=1;fontFamily=Architects Daughter;fontSource=https%3A%2F%2Ffonts.googleapis.com%2Fcss%3Ffamily%3DArchitects%2BDaughter;fillColor=none;strokeWidth=2;" vertex="1" parent="1">
          <mxGeometry x="520" y="455" width="120" height="30" as="geometry" />
        </mxCell>
        <mxCell id="ELJ18ER6MCdmm3gd8A2N-16" value="&lt;span style=&quot;background-color: transparent; color: light-dark(rgb(0, 0, 0), rgb(255, 255, 255));&quot;&gt;Google Gemini Code Assist&lt;/span&gt;" style="rounded=0;whiteSpace=wrap;html=1;sketch=1;hachureGap=4;jiggle=2;curveFitting=1;fontFamily=Architects Daughter;fontSource=https%3A%2F%2Ffonts.googleapis.com%2Fcss%3Ffamily%3DArchitects%2BDaughter;fillColor=none;strokeWidth=2;" vertex="1" parent="1">
          <mxGeometry x="520" y="518" width="120" height="30" as="geometry" />
        </mxCell>
        <mxCell id="ELJ18ER6MCdmm3gd8A2N-17" value="&lt;div data-mind-map-text=&quot;[{&amp;quot;paragraphProps&amp;quot;:{&amp;quot;type&amp;quot;:&amp;quot;paragraph&amp;quot;,&amp;quot;textAlign&amp;quot;:0,&amp;quot;lineSpacing&amp;quot;:1.4},&amp;quot;isComplete&amp;quot;:true,&amp;quot;textProps&amp;quot;:[{&amp;quot;type&amp;quot;:&amp;quot;text&amp;quot;,&amp;quot;text&amp;quot;:&amp;quot;豆包MarsCode&amp;quot;,&amp;quot;color&amp;quot;:&amp;quot;#1f1f1f&amp;quot;,&amp;quot;fontWeight&amp;quot;:400,&amp;quot;fontSize&amp;quot;:14,&amp;quot;fontFamily&amp;quot;:&amp;quot;\&amp;quot;Helvetica Neue\&amp;quot;, Helvetica, \&amp;quot;PingFang SC\&amp;quot;, \&amp;quot;Microsoft YaHei\&amp;quot;, \&amp;quot;Source Han Sans SC\&amp;quot;, \&amp;quot;Noto Sans CJK SC\&amp;quot;, \&amp;quot;WenQuanYi Micro Hei\&amp;quot;, sans-serif&amp;quot;,&amp;quot;italic&amp;quot;:false,&amp;quot;underline&amp;quot;:false,&amp;quot;strike&amp;quot;:false}]}]&quot;&gt;豆包MarsCode&lt;/div&gt;" style="rounded=0;whiteSpace=wrap;html=1;sketch=1;hachureGap=4;jiggle=2;curveFitting=1;fontFamily=Architects Daughter;fontSource=https%3A%2F%2Ffonts.googleapis.com%2Fcss%3Ffamily%3DArchitects%2BDaughter;fillColor=none;strokeWidth=2;" vertex="1" parent="1">
          <mxGeometry x="520" y="581" width="120" height="27.5" as="geometry" />
        </mxCell>
        <mxCell id="ELJ18ER6MCdmm3gd8A2N-18" value="&lt;div data-mind-map-text=&quot;[{&amp;quot;paragraphProps&amp;quot;:{&amp;quot;type&amp;quot;:&amp;quot;paragraph&amp;quot;,&amp;quot;textAlign&amp;quot;:0,&amp;quot;lineSpacing&amp;quot;:1.4},&amp;quot;isComplete&amp;quot;:true,&amp;quot;textProps&amp;quot;:[{&amp;quot;type&amp;quot;:&amp;quot;text&amp;quot;,&amp;quot;text&amp;quot;:&amp;quot;豆包MarsCode&amp;quot;,&amp;quot;color&amp;quot;:&amp;quot;#1f1f1f&amp;quot;,&amp;quot;fontWeight&amp;quot;:400,&amp;quot;fontSize&amp;quot;:14,&amp;quot;fontFamily&amp;quot;:&amp;quot;\&amp;quot;Helvetica Neue\&amp;quot;, Helvetica, \&amp;quot;PingFang SC\&amp;quot;, \&amp;quot;Microsoft YaHei\&amp;quot;, \&amp;quot;Source Han Sans SC\&amp;quot;, \&amp;quot;Noto Sans CJK SC\&amp;quot;, \&amp;quot;WenQuanYi Micro Hei\&amp;quot;, sans-serif&amp;quot;,&amp;quot;italic&amp;quot;:false,&amp;quot;underline&amp;quot;:false,&amp;quot;strike&amp;quot;:false}]}]&quot;&gt;&lt;div data-mind-map-text=&quot;[{&amp;quot;paragraphProps&amp;quot;:{&amp;quot;type&amp;quot;:&amp;quot;paragraph&amp;quot;,&amp;quot;textAlign&amp;quot;:0,&amp;quot;lineSpacing&amp;quot;:1.4},&amp;quot;isComplete&amp;quot;:true,&amp;quot;textProps&amp;quot;:[{&amp;quot;type&amp;quot;:&amp;quot;text&amp;quot;,&amp;quot;text&amp;quot;:&amp;quot;zzcode&amp;quot;,&amp;quot;color&amp;quot;:&amp;quot;#1f1f1f&amp;quot;,&amp;quot;fontWeight&amp;quot;:400,&amp;quot;fontSize&amp;quot;:14,&amp;quot;fontFamily&amp;quot;:&amp;quot;\&amp;quot;Helvetica Neue\&amp;quot;, Helvetica, \&amp;quot;PingFang SC\&amp;quot;, \&amp;quot;Microsoft YaHei\&amp;quot;, \&amp;quot;Source Han Sans SC\&amp;quot;, \&amp;quot;Noto Sans CJK SC\&amp;quot;, \&amp;quot;WenQuanYi Micro Hei\&amp;quot;, sans-serif&amp;quot;,&amp;quot;italic&amp;quot;:false,&amp;quot;underline&amp;quot;:false,&amp;quot;strike&amp;quot;:false}]}]&quot;&gt;zzcode&lt;/div&gt;&lt;/div&gt;" style="rounded=0;whiteSpace=wrap;html=1;sketch=1;hachureGap=4;jiggle=2;curveFitting=1;fontFamily=Architects Daughter;fontSource=https%3A%2F%2Ffonts.googleapis.com%2Fcss%3Ffamily%3DArchitects%2BDaughter;fillColor=none;strokeWidth=2;" vertex="1" parent="1">
          <mxGeometry x="520" y="640" width="120" height="35" as="geometry" />
        </mxCell>
        <mxCell id="ELJ18ER6MCdmm3gd8A2N-19" value="&lt;b style=&quot;forced-color-adjust: none; color: rgb(0, 0, 0); font-family: &amp;quot;Architects Daughter&amp;quot;; font-style: normal; font-variant-ligatures: normal; font-variant-caps: normal; letter-spacing: normal; orphans: 2; text-indent: 0px; text-transform: none; widows: 2; word-spacing: 0px; -webkit-text-stroke-width: 0px; white-space: nowrap; text-decoration-thickness: initial; text-decoration-style: initial; text-decoration-color: initial;&quot;&gt;&lt;font style=&quot;forced-color-adjust: none; font-size: 14px;&quot;&gt;内置AI&lt;/font&gt;&lt;/b&gt;" style="text;whiteSpace=wrap;html=1;fontFamily=Architects Daughter;fontSource=https%3A%2F%2Ffonts.googleapis.com%2Fcss%3Ffamily%3DArchitects%2BDaughter;align=center;" vertex="1" parent="1">
          <mxGeometry x="300" y="620" width="80" height="40" as="geometry" />
        </mxCell>
        <mxCell id="ELJ18ER6MCdmm3gd8A2N-23" value="" style="endArrow=classic;html=1;rounded=0;sketch=1;hachureGap=4;jiggle=2;curveFitting=1;fontFamily=Architects Daughter;fontSource=https%3A%2F%2Ffonts.googleapis.com%2Fcss%3Ffamily%3DArchitects%2BDaughter;strokeWidth=2;entryX=0;entryY=0.5;entryDx=0;entryDy=0;" edge="1" parent="1" target="ELJ18ER6MCdmm3gd8A2N-5">
          <mxGeometry width="50" height="50" relative="1" as="geometry">
            <mxPoint x="200" y="590" as="sourcePoint" />
            <mxPoint x="290" y="600" as="targetPoint" />
          </mxGeometry>
        </mxCell>
      </root>
    </mxGraphModel>
  </diagram>
</mxfile>
